<svg width="67" height="67" viewBox="0 0 67 67" fill="none" xmlns="http://www.w3.org/2000/svg">
<path d="M44.9938 14.686L53.5733 25.4484C54.8064 26.9952 55.268 29.0193 54.8274 30.9477L51.7623 44.3657C51.3218 46.2941 50.0271 47.917 48.2447 48.775L35.843 54.7445C34.0607 55.6025 31.9846 55.6021 30.2025 54.7435L17.803 48.7694C16.021 47.9108 14.7269 46.2875 14.287 44.3589L11.2268 30.9398C10.787 29.0112 11.2493 26.9872 12.4829 25.4409L21.0664 14.6817C22.3 13.1353 24.1706 12.2349 26.1487 12.2353L39.9123 12.2378C41.8904 12.2381 43.7607 13.1392 44.9938 14.686Z" fill="white" stroke="#2B6C68" stroke-width="3"/>
<path d="M35.5195 25.8594H32.7461L29.25 28.0859V30.6836L32.4922 28.6523H32.5703V40H35.5195V25.8594Z" fill="#2B6C68"/>
</svg>
